<?xml version="1.0" encoding="UTF-8" standalone="no"?>
<!-- Generated by IcoMoon.io -->

<svg
   xmlns:dc="http://purl.org/dc/elements/1.1/"
   xmlns:cc="http://creativecommons.org/ns#"
   xmlns:rdf="http://www.w3.org/1999/02/22-rdf-syntax-ns#"
   xmlns:svg="http://www.w3.org/2000/svg"
   xmlns="http://www.w3.org/2000/svg"
   xmlns:sodipodi="http://sodipodi.sourceforge.net/DTD/sodipodi-0.dtd"
   xmlns:inkscape="http://www.inkscape.org/namespaces/inkscape"
   version="1.1"
   width="32"
   height="32"
   viewBox="0 0 32 32"
   id="svg2"
   inkscape:version="0.48.4 r9939"
   sodipodi:docname="untitled.svg">
  <metadata
     id="metadata13">
    <rdf:RDF>
      <cc:Work
         rdf:about="">
        <dc:format>image/svg+xml</dc:format>
        <dc:type
           rdf:resource="http://purl.org/dc/dcmitype/StillImage" />
        <dc:title></dc:title>
      </cc:Work>
    </rdf:RDF>
  </metadata>
  <defs
     id="defs11" />
  <sodipodi:namedview
     pagecolor="#ffffff"
     bordercolor="#666666"
     borderopacity="1"
     objecttolerance="10"
     gridtolerance="10"
     guidetolerance="10"
     inkscape:pageopacity="0"
     inkscape:pageshadow="2"
     inkscape:window-width="1920"
     inkscape:window-height="1018"
     id="namedview9"
     showgrid="false"
     inkscape:zoom="7.375"
     inkscape:cx="16"
     inkscape:cy="16"
     inkscape:window-x="-8"
     inkscape:window-y="-8"
     inkscape:window-maximized="1"
     inkscape:current-layer="svg2" />
  <g
     id="icomoon-ignore">
    <line
       stroke-width="1"
       x1=""
       y1=""
       x2=""
       y2=""
       stroke="#449FDB"
       opacity=""
       id="line5" />
  </g>
  <path
     d="M27.188 19.625l-3.188-16.063c-0.375-2-2.313-3.563-4.375-3.563h-8c-2 0-3.938 1.563-4.313 3.563l-3.25 16.063c-0.188 1.125 0.063 2.25 0.75 3.063s1.688 1.313 2.813 1.313h16c1.125 0 2.188-0.5 2.875-1.313s0.938-1.938 0.688-3.063zM13.625 2h4v2h-4zM7.625 12l1.25-6h13.563l1.188 6 0.813 4h-17.563zM11.625 22c-1.063 0-2-0.875-2-2s0.938-2 2-2c1.125 0 2 0.875 2 2s-0.875 2-2 2zM19.625 22c-1.063 0-2-0.875-2-2s0.938-2 2-2c1.125 0 2 0.875 2 2s-0.875 2-2 2zM19 26l0.875 2h-8.5l0.938-2h-3.188l-2.625 6h3.125l0.875-2h10.25l0.875 2h3.125l-2.625-6z"
     fill="#000000"
     id="path7" />
</svg>
